{"asset":{"version":"2.0","generator":"Blockbench 4.4.1 glTF exporter"},"scenes":[{"nodes":[13],"name":"blockbench_export"}],"scene":0,"nodes":[{"translation":[-0.125,-0.75,0],"name":"right_leg","mesh":0},{"translation":[0.125,0.75,0],"name":"right_leg","children":[0]},{"translation":[0.125,-0.75,0],"name":"left_leg","mesh":1},{"translation":[-0.125,0.75,0],"name":"left_leg","children":[2]},{"translation":[0,-0.75,0],"name":"body","mesh":2},{"translation":[-0.3125,-1.375,0],"name":"right_arm","mesh":3},{"translation":[0.3125,0.625,0],"name":"right_arm","children":[5]},{"translation":[0.3125,-1.375,0],"name":"left_arm","mesh":4},{"translation":[-0.3125,0.625,0],"name":"left_arm","children":[7]},{"translation":[0,-1.5,0],"name":"head","mesh":5},{"translation":[0,0.75,0],"name":"head","children":[9]},{"translation":[0,0.75,0],"name":"body","children":[4,6,8,10]},{"name":"Root","children":[1,3,11]},{"children":[12]}],"bufferViews":[{"buffer":0,"byteOffset":0,"byteLength":288,"target":34962,"byteStride":12},{"buffer":0,"byteOffset":288,"byteLength":288,"target":34962,"byteStride":12},{"buffer":0,"byteOffset":576,"byteLength":192,"target":34962,"byteStride":8},{"buffer":0,"byteOffset":768,"byteLength":72,"target":34963},{"buffer":0,"byteOffset":840,"byteLength":288,"target":34962,"byteStride":12},{"buffer":0,"byteOffset":1128,"byteLength":288,"target":34962,"byteStride":12},{"buffer":0,"byteOffset":1416,"byteLength":192,"target":34962,"byteStride":8},{"buffer":0,"byteOffset":1608,"byteLength":72,"target":34963},{"buffer":0,"byteOffset":1680,"byteLength":288,"target":34962,"byteStride":12},{"buffer":0,"byteOffset":1968,"byteLength":288,"target":34962,"byteStride":12},{"buffer":0,"byteOffset":2256,"byteLength":192,"target":34962,"byteStride":8},{"buffer":0,"byteOffset":2448,"byteLength":72,"target":34963},{"buffer":0,"byteOffset":2520,"byteLength":288,"target":34962,"byteStride":12},{"buffer":0,"byteOffset":2808,"byteLength":288,"target":34962,"byteStride":12},{"buffer":0,"byteOffset":3096,"byteLength":192,"target":34962,"byteStride":8},{"buffer":0,"byteOffset":3288,"byteLength":72,"target":34963},{"buffer":0,"byteOffset":3360,"byteLength":288,"target":34962,"byteStride":12},{"buffer":0,"byteOffset":3648,"byteLength":288,"target":34962,"byteStride":12},{"buffer":0,"byteOffset":3936,"byteLength":192,"target":34962,"byteStride":8},{"buffer":0,"byteOffset":4128,"byteLength":72,"target":34963},{"buffer":0,"byteOffset":4200,"byteLength":288,"target":34962,"byteStride":12},{"buffer":0,"byteOffset":4488,"byteLength":288,"target":34962,"byteStride":12},{"buffer":0,"byteOffset":4776,"byteLength":192,"target":34962,"byteStride":8},{"buffer":0,"byteOffset":4968,"byteLength":72,"target":34963},{"buffer":0,"byteOffset":5040,"byteLength":64},{"buffer":0,"byteOffset":5104,"byteLength":256},{"buffer":0,"byteOffset":5360,"byteLength":64},{"buffer":0,"byteOffset":5424,"byteLength":256},{"buffer":0,"byteOffset":5680,"byteLength":4},{"buffer":0,"byteOffset":5684,"byteLength":16},{"buffer":0,"byteOffset":5700,"byteLength":56},{"buffer":0,"byteOffset":5756,"byteLength":168}],"buffers":[{"byteLength":5924,"uri":"data:application/octet-stream;base64,"}],"accessors":[{"bufferView":0,"componentType":5126,"count":24,"max":[0.25,0.75,0.125],"min":[0,0,-0.125],"type":"VEC3"},{"bufferView":1,"componentType":5126,"count":24,"max":[1,1,1],"min":[-1,-1,-1],"type":"VEC3"},{"bufferView":2,"componentType":5126,"count":24,"max":[0.249755859375,0.749755859375],"min":[0.000244140625,0.500244140625],"type":"VEC2"},{"bufferView":3,"componentType":5123,"count":36,"max":[23],"min":[0],"type":"SCALAR"},{"bufferView":4,"componentType":5126,"count":24,"max":[0,0.75,0.125],"min":[-0.25,0,-0.125],"type":"VEC3"},{"bufferView":5,"componentType":5126,"count":24,"max":[1,1,1],"min":[-1,-1,-1],"type":"VEC3"},{"bufferView":6,"componentType":5126,"count":24,"max":[0.499755859375,0.249755859375],"min":[0.250244140625,0.000244140625],"type":"VEC2"},{"bufferView":7,"componentType":5123,"count":36,"max":[23],"min":[0],"type":"SCALAR"},{"bufferView":8,"componentType":5126,"count":24,"max":[0.25,1.5,0.125],"min":[-0.25,0.75,-0.125],"type":"VEC3"},{"bufferView":9,"componentType":5126,"count":24,"max":[1,1,1],"min":[-1,-1,-1],"type":"VEC3"},{"bufferView":10,"componentType":5126,"count":24,"max":[0.624755859375,0.749755859375],"min":[0.250244140625,0.500244140625],"type":"VEC2"},{"bufferView":11,"componentType":5123,"count":36,"max":[23],"min":[0],"type":"SCALAR"},{"bufferView":12,"componentType":5126,"count":24,"max":[0.5,1.5,0.125],"min":[0.25,0.75,-0.125],"type":"VEC3"},{"bufferView":13,"componentType":5126,"count":24,"max":[1,1,1],"min":[-1,-1,-1],"type":"VEC3"},{"bufferView":14,"componentType":5126,"count":24,"max":[0.874755859375,0.749755859375],"min":[0.625244140625,0.500244140625],"type":"VEC2"},{"bufferView":15,"componentType":5123,"count":36,"max":[23],"min":[0],"type":"SCALAR"},{"bufferView":16,"componentType":5126,"count":24,"max":[-0.25,1.5,0.125],"min":[-0.5,0.75,-0.125],"type":"VEC3"},{"bufferView":17,"componentType":5126,"count":24,"max":[1,1,1],"min":[-1,-1,-1],"type":"VEC3"},{"bufferView":18,"componentType":5126,"count":24,"max":[0.749755859375,0.249755859375],"min":[0.500244140625,0.000244140625],"type":"VEC2"},{"bufferView":19,"componentType":5123,"count":36,"max":[23],"min":[0],"type":"SCALAR"},{"bufferView":20,"componentType":5126,"count":24,"max":[0.25,2,0.25],"min":[-0.25,1.5,-0.25],"type":"VEC3"},{"bufferView":21,"componentType":5126,"count":24,"max":[1,1,1],"min":[-1,-1,-1],"type":"VEC3"},{"bufferView":22,"componentType":5126,"count":24,"max":[0.499755859375,0.999755859375],"min":[0.000244140625,0.750244140625],"type":"VEC2"},{"bufferView":23,"componentType":5123,"count":36,"max":[23],"min":[0],"type":"SCALAR"},{"bufferView":24,"componentType":5126,"count":16,"max":[1],"min":[0],"type":"SCALAR"},{"bufferView":25,"componentType":5126,"count":16,"max":[0.4713967442512512,0,0,1],"min":[-0.43575480580329895,0,0,0.8819212913513184],"type":"VEC4"},{"bufferView":26,"componentType":5126,"count":16,"max":[1],"min":[0],"type":"SCALAR"},{"bufferView":27,"componentType":5126,"count":16,"max":[0.43575480580329895,0,0,1],"min":[-0.4713967442512512,0,0,0.8819212913513184],"type":"VEC4"},{"bufferView":28,"componentType":5126,"count":1,"max":[0],"min":[0],"type":"SCALAR"},{"bufferView":29,"componentType":5126,"count":1,"max":[0,0,0,1],"min":[0,0,0,1],"type":"VEC4"},{"bufferView":30,"componentType":5126,"count":14,"max":[0.875],"min":[0],"type":"SCALAR"},{"bufferView":31,"componentType":5126,"count":14,"max":[0,0.1875,0],"min":[0,0,0],"type":"VEC3"}],"materials":[{"pbrMetallicRoughness":{"metallicFactor":0,"roughnessFactor":1,"baseColorTexture":{"index":0}},"alphaMode":"MASK","alphaCutoff":0.05,"doubleSided":true}],"textures":[{"sampler":0,"source":0,"name":"player.png"}],"samplers":[{"magFilter":9728,"minFilter":9728,"wrapS":33071,"wrapT":33071}],"images":[{"mimeType":"image/png","uri":"data:image/png;base64,"}],"meshes":[{"primitives":[{"mode":4,"attributes":{"POSITION":0,"NORMAL":1,"TEXCOORD_0":2},"indices":3,"material":0}]},{"primitives":[{"mode":4,"attributes":{"POSITION":4,"NORMAL":5,"TEXCOORD_0":6},"indices":7,"material":0}]},{"primitives":[{"mode":4,"attributes":{"POSITION":8,"NORMAL":9,"TEXCOORD_0":10},"indices":11,"material":0}]},{"primitives":[{"mode":4,"attributes":{"POSITION":12,"NORMAL":13,"TEXCOORD_0":14},"indices":15,"material":0}]},{"primitives":[{"mode":4,"attributes":{"POSITION":16,"NORMAL":17,"TEXCOORD_0":18},"indices":19,"material":0}]},{"primitives":[{"mode":4,"attributes":{"POSITION":20,"NORMAL":21,"TEXCOORD_0":22},"indices":23,"material":0}]}],"animations":[{"name":"animation.player.run","samplers":[{"input":24,"output":25,"interpolation":"LINEAR"},{"input":26,"output":27,"interpolation":"LINEAR"},{"input":28,"output":29,"interpolation":"LINEAR"},{"input":30,"output":31,"interpolation":"LINEAR"}],"channels":[{"sampler":0,"target":{"node":3,"path":"rotation"}},{"sampler":1,"target":{"node":1,"path":"rotation"}},{"sampler":2,"target":{"node":12,"path":"rotation"}},{"sampler":3,"target":{"node":12,"path":"translation"}}]}]}