{"asset":{"version":"2.0","generator":"Blockbench 4.4.1 glTF exporter"},"scenes":[{"nodes":[13],"name":"blockbench_export"}],"scene":0,"nodes":[{"translation":[0,-1.5,0],"name":"body","mesh":0},{"translation":[0.75,-2.9375,0],"name":"left_arm","mesh":1},{"translation":[-0.75,1.4375,0],"name":"left_arm","children":[1]},{"translation":[-0.75,-2.9375,0],"name":"right_arm","mesh":2},{"translation":[0.75,1.4375,0],"name":"right_arm","children":[3]},{"translation":[0,-3.0625,0],"name":"head","mesh":3},{"translation":[0,1.5625,0],"name":"head","children":[5]},{"translation":[0,1.5,0],"name":"body","children":[0,2,4,6]},{"translation":[0.25,-1.5,0],"name":"left_leg","mesh":4},{"translation":[-0.25,1.5,0],"name":"left_leg","children":[8]},{"translation":[-0.25,-1.5,0],"name":"right_leg","mesh":5},{"translation":[0.25,1.5,0],"name":"right_leg","children":[10]},{"name":"Root","children":[7,9,11]},{"children":[12]}],"bufferViews":[{"buffer":0,"byteOffset":0,"byteLength":288,"target":34962,"byteStride":12},{"buffer":0,"byteOffset":288,"byteLength":288,"target":34962,"byteStride":12},{"buffer":0,"byteOffset":576,"byteLength":192,"target":34962,"byteStride":8},{"buffer":0,"byteOffset":768,"byteLength":72,"target":34963},{"buffer":0,"byteOffset":840,"byteLength":288,"target":34962,"byteStride":12},{"buffer":0,"byteOffset":1128,"byteLength":288,"target":34962,"byteStride":12},{"buffer":0,"byteOffset":1416,"byteLength":192,"target":34962,"byteStride":8},{"buffer":0,"byteOffset":1608,"byteLength":72,"target":34963},{"buffer":0,"byteOffset":1680,"byteLength":288,"target":34962,"byteStride":12},{"buffer":0,"byteOffset":1968,"byteLength":288,"target":34962,"byteStride":12},{"buffer":0,"byteOffset":2256,"byteLength":192,"target":34962,"byteStride":8},{"buffer":0,"byteOffset":2448,"byteLength":72,"target":34963},{"buffer":0,"byteOffset":2520,"byteLength":288,"target":34962,"byteStride":12},{"buffer":0,"byteOffset":2808,"byteLength":288,"target":34962,"byteStride":12},{"buffer":0,"byteOffset":3096,"byteLength":192,"target":34962,"byteStride":8},{"buffer":0,"byteOffset":3288,"byteLength":72,"target":34963},{"buffer":0,"byteOffset":3360,"byteLength":288,"target":34962,"byteStride":12},{"buffer":0,"byteOffset":3648,"byteLength":288,"target":34962,"byteStride":12},{"buffer":0,"byteOffset":3936,"byteLength":192,"target":34962,"byteStride":8},{"buffer":0,"byteOffset":4128,"byteLength":72,"target":34963},{"buffer":0,"byteOffset":4200,"byteLength":288,"target":34962,"byteStride":12},{"buffer":0,"byteOffset":4488,"byteLength":288,"target":34962,"byteStride":12},{"buffer":0,"byteOffset":4776,"byteLength":192,"target":34962,"byteStride":8},{"buffer":0,"byteOffset":4968,"byteLength":72,"target":34963},{"buffer":0,"byteOffset":5040,"byteLength":44},{"buffer":0,"byteOffset":5084,"byteLength":132},{"buffer":0,"byteOffset":5216,"byteLength":44},{"buffer":0,"byteOffset":5260,"byteLength":176},{"buffer":0,"byteOffset":5436,"byteLength":44},{"buffer":0,"byteOffset":5480,"byteLength":176},{"buffer":0,"byteOffset":5656,"byteLength":1000},{"buffer":0,"byteOffset":6656,"byteLength":4000},{"buffer":0,"byteOffset":10656,"byteLength":900},{"buffer":0,"byteOffset":11556,"byteLength":2700},{"buffer":0,"byteOffset":14256,"byteLength":344},{"buffer":0,"byteOffset":14600,"byteLength":1376},{"buffer":0,"byteOffset":15976,"byteLength":8},{"buffer":0,"byteOffset":15984,"byteLength":32},{"buffer":0,"byteOffset":16016,"byteLength":8},{"buffer":0,"byteOffset":16024,"byteLength":32},{"buffer":0,"byteOffset":16056,"byteLength":8},{"buffer":0,"byteOffset":16064,"byteLength":24},{"buffer":0,"byteOffset":16088,"byteLength":1060},{"buffer":0,"byteOffset":17148,"byteLength":4240},{"buffer":0,"byteOffset":21388,"byteLength":12},{"buffer":0,"byteOffset":21400,"byteLength":36},{"buffer":0,"byteOffset":21436,"byteLength":388},{"buffer":0,"byteOffset":21824,"byteLength":1552},{"buffer":0,"byteOffset":23376,"byteLength":8},{"buffer":0,"byteOffset":23384,"byteLength":32},{"buffer":0,"byteOffset":23416,"byteLength":8},{"buffer":0,"byteOffset":23424,"byteLength":24},{"buffer":0,"byteOffset":23448,"byteLength":8},{"buffer":0,"byteOffset":23456,"byteLength":32},{"buffer":0,"byteOffset":23488,"byteLength":4},{"buffer":0,"byteOffset":23492,"byteLength":16},{"buffer":0,"byteOffset":23508,"byteLength":4},{"buffer":0,"byteOffset":23512,"byteLength":12},{"buffer":0,"byteOffset":23524,"byteLength":4},{"buffer":0,"byteOffset":23528,"byteLength":16},{"buffer":0,"byteOffset":23544,"byteLength":4},{"buffer":0,"byteOffset":23548,"byteLength":12}],"buffers":[{"byteLength":23560,"uri":"data:application/octet-stream;base64,"}],"accessors":[{"bufferView":0,"componentType":5126,"count":24,"max":[0.5,3,0.25],"min":[-0.5,1.5,-0.25],"type":"VEC3"},{"bufferView":1,"componentType":5126,"count":24,"max":[1,1,1],"min":[-1,-1,-1],"type":"VEC3"},{"bufferView":2,"componentType":5126,"count":24,"max":[0.625,0.75],"min":[0.25,0.5],"type":"VEC2"},{"bufferView":3,"componentType":5123,"count":36,"max":[23],"min":[0],"type":"SCALAR"},{"bufferView":4,"componentType":5126,"count":24,"max":[-0.5,3,0.25],"min":[-1,1.5,-0.25],"type":"VEC3"},{"bufferView":5,"componentType":5126,"count":24,"max":[1,1,1],"min":[-1,-1,-1],"type":"VEC3"},{"bufferView":6,"componentType":5126,"count":24,"max":[0.75,0.25],"min":[0.5,0],"type":"VEC2"},{"bufferView":7,"componentType":5123,"count":36,"max":[23],"min":[0],"type":"SCALAR"},{"bufferView":8,"componentType":5126,"count":24,"max":[1,3,0.25],"min":[0.5,1.5,-0.25],"type":"VEC3"},{"bufferView":9,"componentType":5126,"count":24,"max":[1,1,1],"min":[-1,-1,-1],"type":"VEC3"},{"bufferView":10,"componentType":5126,"count":24,"max":[0.875,0.75],"min":[0.625,0.5],"type":"VEC2"},{"bufferView":11,"componentType":5123,"count":36,"max":[23],"min":[0],"type":"SCALAR"},{"bufferView":12,"componentType":5126,"count":24,"max":[0.5,4,0.5],"min":[-0.5,3,-0.5],"type":"VEC3"},{"bufferView":13,"componentType":5126,"count":24,"max":[1,1,1],"min":[-1,-1,-1],"type":"VEC3"},{"bufferView":14,"componentType":5126,"count":24,"max":[0.5,1],"min":[0,0.75],"type":"VEC2"},{"bufferView":15,"componentType":5123,"count":36,"max":[23],"min":[0],"type":"SCALAR"},{"bufferView":16,"componentType":5126,"count":24,"max":[0,1.5,0.25],"min":[-0.5,0,-0.25],"type":"VEC3"},{"bufferView":17,"componentType":5126,"count":24,"max":[1,1,1],"min":[-1,-1,-1],"type":"VEC3"},{"bufferView":18,"componentType":5126,"count":24,"max":[0.5,0.25],"min":[0.25,0],"type":"VEC2"},{"bufferView":19,"componentType":5123,"count":36,"max":[23],"min":[0],"type":"SCALAR"},{"bufferView":20,"componentType":5126,"count":24,"max":[0.5,1.5,0.25],"min":[0,0,-0.25],"type":"VEC3"},{"bufferView":21,"componentType":5126,"count":24,"max":[1,1,1],"min":[-1,-1,-1],"type":"VEC3"},{"bufferView":22,"componentType":5126,"count":24,"max":[0.25,0.75],"min":[0,0.5],"type":"VEC2"},{"bufferView":23,"componentType":5123,"count":36,"max":[23],"min":[0],"type":"SCALAR"},{"bufferView":24,"componentType":5126,"count":11,"max":[0.6666666865348816],"min":[0],"type":"SCALAR"},{"bufferView":25,"componentType":5126,"count":11,"max":[0,0.125,0],"min":[0,0,0],"type":"VEC3"},{"bufferView":26,"componentType":5126,"count":11,"max":[0.6666666865348816],"min":[0],"type":"SCALAR"},{"bufferView":27,"componentType":5126,"count":11,"max":[0.5187732577323914,0,0,1],"min":[-0.4713967442512512,0,0,0.8549118638038635],"type":"VEC4"},{"bufferView":28,"componentType":5126,"count":11,"max":[0.6666666865348816],"min":[0],"type":"SCALAR"},{"bufferView":29,"componentType":5126,"count":11,"max":[0.4713967442512512,0,0,1],"min":[-0.5187732577323914,0,0,0.8549118638038635],"type":"VEC4"},{"bufferView":30,"componentType":5126,"count":250,"max":[15.5],"min":[0],"type":"SCALAR"},{"bufferView":31,"componentType":5126,"count":250,"max":[0.047782983630895615,0.10884096473455429,0.0025983978994190693,1],"min":[-0.02181488461792469,-0.008080240339040756,-0.00043328694300726056,0.9938197731971741],"type":"VEC4"},{"bufferView":32,"componentType":5126,"count":225,"max":[13.5],"min":[0],"type":"SCALAR"},{"bufferView":33,"componentType":5126,"count":225,"max":[1,1.024999976158142,1],"min":[1,0.9981481432914734,1],"type":"VEC3"},{"bufferView":34,"componentType":5126,"count":86,"max":[15.791666984558105],"min":[0],"type":"SCALAR"},{"bufferView":35,"componentType":5126,"count":86,"max":[0.06484359502792358,0.19509032368659973,0.008536821231245995,1],"min":[-0.004845710936933756,-0.13024672865867615,0,0.9807852506637573],"type":"VEC4"},{"bufferView":36,"componentType":5126,"count":2,"max":[8.625],"min":[0],"type":"SCALAR"},{"bufferView":37,"componentType":5126,"count":2,"max":[0.04357787221670151,-0.0019026509253308177,-0.04357787221670151,0.9980973601341248],"min":[0.04357787221670151,-0.0019026509253308177,-0.04357787221670151,0.9980973601341248],"type":"VEC4"},{"bufferView":38,"componentType":5126,"count":2,"max":[8.625],"min":[0],"type":"SCALAR"},{"bufferView":39,"componentType":5126,"count":2,"max":[-0.04357787221670151,-0.0019026509253308177,0.04357787221670151,0.9980973601341248],"min":[-0.04357787221670151,-0.0019026509253308177,0.04357787221670151,0.9980973601341248],"type":"VEC4"},{"bufferView":40,"componentType":5126,"count":2,"max":[8.916666984558105],"min":[0],"type":"SCALAR"},{"bufferView":41,"componentType":5126,"count":2,"max":[0,-1.0625,0],"min":[0,-1.0625,0],"type":"VEC3"},{"bufferView":42,"componentType":5126,"count":265,"max":[16.41666603088379],"min":[0],"type":"SCALAR"},{"bufferView":43,"componentType":5126,"count":265,"max":[0.041840776801109314,0,0,1],"min":[-0.07349606603384018,0,0,0.9972954988479614],"type":"VEC4"},{"bufferView":44,"componentType":5126,"count":3,"max":[16.41666603088379],"min":[0],"type":"SCALAR"},{"bufferView":45,"componentType":5126,"count":3,"max":[0,1.6875,0],"min":[0,1.6875,0],"type":"VEC3"},{"bufferView":46,"componentType":5126,"count":97,"max":[16.29166603088379],"min":[0],"type":"SCALAR"},{"bufferView":47,"componentType":5126,"count":97,"max":[0.16160382330417633,0,0,1],"min":[-0.24094843864440918,0,0,0.9705379009246826],"type":"VEC4"},{"bufferView":48,"componentType":5126,"count":2,"max":[8.916666984558105],"min":[0],"type":"SCALAR"},{"bufferView":49,"componentType":5126,"count":2,"max":[0.1736481785774231,0,0,0.9848077297210693],"min":[0.1736481785774231,0,0,0.9848077297210693],"type":"VEC4"},{"bufferView":50,"componentType":5126,"count":2,"max":[8.916666984558105],"min":[0],"type":"SCALAR"},{"bufferView":51,"componentType":5126,"count":2,"max":[-0.25,2.375,-0.0625],"min":[-0.25,2.375,-0.0625],"type":"VEC3"},{"bufferView":52,"componentType":5126,"count":2,"max":[8.916666984558105],"min":[0],"type":"SCALAR"},{"bufferView":53,"componentType":5126,"count":2,"max":[-0.659345805644989,0,0,0.751839816570282],"min":[-0.659345805644989,0,0,0.751839816570282],"type":"VEC4"},{"bufferView":54,"componentType":5126,"count":1,"max":[0],"min":[0],"type":"SCALAR"},{"bufferView":55,"componentType":5126,"count":1,"max":[0,0,-0.7071067690849304,0.7071067690849304],"min":[0,0,-0.7071067690849304,0.7071067690849304],"type":"VEC4"},{"bufferView":56,"componentType":5126,"count":1,"max":[0],"min":[0],"type":"SCALAR"},{"bufferView":57,"componentType":5126,"count":1,"max":[-0.5625,1.25,0],"min":[-0.5625,1.25,0],"type":"VEC3"},{"bufferView":58,"componentType":5126,"count":1,"max":[0],"min":[0],"type":"SCALAR"},{"bufferView":59,"componentType":5126,"count":1,"max":[0,0,0.7071067690849304,0.7071067690849304],"min":[0,0,0.7071067690849304,0.7071067690849304],"type":"VEC4"},{"bufferView":60,"componentType":5126,"count":1,"max":[0],"min":[0],"type":"SCALAR"},{"bufferView":61,"componentType":5126,"count":1,"max":[0.5625,1.25,0],"min":[0.5625,1.25,0],"type":"VEC3"}],"materials":[{"pbrMetallicRoughness":{"metallicFactor":0,"roughnessFactor":1,"baseColorTexture":{"index":0}},"alphaMode":"MASK","alphaCutoff":0.05,"doubleSided":true}],"textures":[{"sampler":0,"source":0,"name":"player.png"}],"samplers":[{"magFilter":9728,"minFilter":9728,"wrapS":33071,"wrapT":33071}],"images":[{"mimeType":"image/png","uri":"data:image/png;base64,"}],"meshes":[{"primitives":[{"mode":4,"attributes":{"POSITION":0,"NORMAL":1,"TEXCOORD_0":2},"indices":3,"material":0}]},{"primitives":[{"mode":4,"attributes":{"POSITION":4,"NORMAL":5,"TEXCOORD_0":6},"indices":7,"material":0}]},{"primitives":[{"mode":4,"attributes":{"POSITION":8,"NORMAL":9,"TEXCOORD_0":10},"indices":11,"material":0}]},{"primitives":[{"mode":4,"attributes":{"POSITION":12,"NORMAL":13,"TEXCOORD_0":14},"indices":15,"material":0}]},{"primitives":[{"mode":4,"attributes":{"POSITION":16,"NORMAL":17,"TEXCOORD_0":18},"indices":19,"material":0}]},{"primitives":[{"mode":4,"attributes":{"POSITION":20,"NORMAL":21,"TEXCOORD_0":22},"indices":23,"material":0}]}],"animations":[{"name":"animation.player.run","samplers":[{"input":24,"output":25,"interpolation":"LINEAR"},{"input":26,"output":27,"interpolation":"LINEAR"},{"input":28,"output":29,"interpolation":"LINEAR"}],"channels":[{"sampler":0,"target":{"node":12,"path":"translation"}},{"sampler":1,"target":{"node":9,"path":"rotation"}},{"sampler":2,"target":{"node":11,"path":"rotation"}}]},{"name":"animation.player.idle","samplers":[{"input":30,"output":31,"interpolation":"LINEAR"},{"input":32,"output":33,"interpolation":"LINEAR"},{"input":34,"output":35,"interpolation":"LINEAR"},{"input":36,"output":37,"interpolation":"LINEAR"},{"input":38,"output":39,"interpolation":"LINEAR"}],"channels":[{"sampler":0,"target":{"node":7,"path":"rotation"}},{"sampler":1,"target":{"node":7,"path":"scale"}},{"sampler":2,"target":{"node":6,"path":"rotation"}},{"sampler":3,"target":{"node":9,"path":"rotation"}},{"sampler":4,"target":{"node":11,"path":"rotation"}}]},{"name":"animation.player.crouch","samplers":[{"input":40,"output":41,"interpolation":"LINEAR"},{"input":42,"output":43,"interpolation":"LINEAR"},{"input":44,"output":45,"interpolation":"LINEAR"},{"input":46,"output":47,"interpolation":"LINEAR"},{"input":48,"output":49,"interpolation":"LINEAR"},{"input":50,"output":51,"interpolation":"LINEAR"},{"input":52,"output":53,"interpolation":"LINEAR"}],"channels":[{"sampler":0,"target":{"node":12,"path":"translation"}},{"sampler":1,"target":{"node":7,"path":"rotation"}},{"sampler":2,"target":{"node":7,"path":"translation"}},{"sampler":3,"target":{"node":6,"path":"rotation"}},{"sampler":4,"target":{"node":9,"path":"rotation"}},{"sampler":5,"target":{"node":9,"path":"translation"}},{"sampler":6,"target":{"node":11,"path":"rotation"}}]},{"name":"animation.player.def","samplers":[{"input":54,"output":55,"interpolation":"LINEAR"},{"input":56,"output":57,"interpolation":"LINEAR"},{"input":58,"output":59,"interpolation":"LINEAR"},{"input":60,"output":61,"interpolation":"LINEAR"}],"channels":[{"sampler":0,"target":{"node":2,"path":"rotation"}},{"sampler":1,"target":{"node":2,"path":"translation"}},{"sampler":2,"target":{"node":4,"path":"rotation"}},{"sampler":3,"target":{"node":4,"path":"translation"}}]}]}