{"asset":{"version":"2.0","generator":"Blockbench 4.5.2 glTF exporter"},"scenes":[{"nodes":[16],"name":"blockbench_export"}],"scene":0,"nodes":[{"translation":[0,-1.5,0],"name":"body","mesh":0},{"translation":[-0.75,-2.9375,0],"name":"right_arm","mesh":1},{"translation":[0,-1.3125,0],"name":"WeaponRoot"},{"translation":[0.75,0.1875,0],"name":"right_arm","children":[1,2]},{"translation":[0.75,-2.9375,0],"name":"left_arm","mesh":2},{"translation":[-0.75,0.1875,0],"name":"left_arm","children":[4]},{"translation":[0,1.25,0],"name":"arms","children":[3,5]},{"translation":[0,-3.0625,0],"name":"head","mesh":3},{"name":"head","children":[7]},{"translation":[0,1.5625,0],"name":"HeadMod","children":[8]},{"translation":[0,1.5,0],"name":"body","children":[0,6,9]},{"translation":[0.25,-1.5,0],"name":"left_leg","mesh":4},{"translation":[-0.25,1.5,0],"name":"left_leg","children":[11]},{"translation":[-0.25,-1.5,0],"name":"right_leg","mesh":5},{"translation":[0.25,1.5,0],"name":"right_leg","children":[13]},{"rotation":[0,-1,0,6.123233995736766e-17],"name":"Root","children":[10,12,14]},{"children":[15]}],"bufferViews":[{"buffer":0,"byteOffset":0,"byteLength":288,"target":34962,"byteStride":12},{"buffer":0,"byteOffset":288,"byteLength":288,"target":34962,"byteStride":12},{"buffer":0,"byteOffset":576,"byteLength":192,"target":34962,"byteStride":8},{"buffer":0,"byteOffset":768,"byteLength":72,"target":34963},{"buffer":0,"byteOffset":840,"byteLength":288,"target":34962,"byteStride":12},{"buffer":0,"byteOffset":1128,"byteLength":288,"target":34962,"byteStride":12},{"buffer":0,"byteOffset":1416,"byteLength":192,"target":34962,"byteStride":8},{"buffer":0,"byteOffset":1608,"byteLength":72,"target":34963},{"buffer":0,"byteOffset":1680,"byteLength":288,"target":34962,"byteStride":12},{"buffer":0,"byteOffset":1968,"byteLength":288,"target":34962,"byteStride":12},{"buffer":0,"byteOffset":2256,"byteLength":192,"target":34962,"byteStride":8},{"buffer":0,"byteOffset":2448,"byteLength":72,"target":34963},{"buffer":0,"byteOffset":2520,"byteLength":288,"target":34962,"byteStride":12},{"buffer":0,"byteOffset":2808,"byteLength":288,"target":34962,"byteStride":12},{"buffer":0,"byteOffset":3096,"byteLength":192,"target":34962,"byteStride":8},{"buffer":0,"byteOffset":3288,"byteLength":72,"target":34963},{"buffer":0,"byteOffset":3360,"byteLength":288,"target":34962,"byteStride":12},{"buffer":0,"byteOffset":3648,"byteLength":288,"target":34962,"byteStride":12},{"buffer":0,"byteOffset":3936,"byteLength":192,"target":34962,"byteStride":8},{"buffer":0,"byteOffset":4128,"byteLength":72,"target":34963},{"buffer":0,"byteOffset":4200,"byteLength":288,"target":34962,"byteStride":12},{"buffer":0,"byteOffset":4488,"byteLength":288,"target":34962,"byteStride":12},{"buffer":0,"byteOffset":4776,"byteLength":192,"target":34962,"byteStride":8},{"buffer":0,"byteOffset":4968,"byteLength":72,"target":34963},{"buffer":0,"byteOffset":5040,"byteLength":84},{"buffer":0,"byteOffset":5124,"byteLength":336},{"buffer":0,"byteOffset":5460,"byteLength":296},{"buffer":0,"byteOffset":5756,"byteLength":1184},{"buffer":0,"byteOffset":6940,"byteLength":4},{"buffer":0,"byteOffset":6944,"byteLength":16},{"buffer":0,"byteOffset":6960,"byteLength":4},{"buffer":0,"byteOffset":6964,"byteLength":12},{"buffer":0,"byteOffset":6976,"byteLength":200},{"buffer":0,"byteOffset":7176,"byteLength":800},{"buffer":0,"byteOffset":7976,"byteLength":200},{"buffer":0,"byteOffset":8176,"byteLength":800},{"buffer":0,"byteOffset":8976,"byteLength":248},{"buffer":0,"byteOffset":9224,"byteLength":992},{"buffer":0,"byteOffset":10216,"byteLength":100},{"buffer":0,"byteOffset":10316,"byteLength":400},{"buffer":0,"byteOffset":10716,"byteLength":116},{"buffer":0,"byteOffset":10832,"byteLength":464}],"buffers":[{"byteLength":11296,"uri":"data:application/octet-stream;base64,"}],"accessors":[{"bufferView":0,"componentType":5126,"count":24,"max":[0.5,3,0.25],"min":[-0.5,1.5,-0.25],"type":"VEC3"},{"bufferView":1,"componentType":5126,"count":24,"max":[1,1,1],"min":[-1,-1,-1],"type":"VEC3"},{"bufferView":2,"componentType":5126,"count":24,"max":[0.625,0.75],"min":[0.25,0.5],"type":"VEC2"},{"bufferView":3,"componentType":5123,"count":36,"max":[23],"min":[0],"type":"SCALAR"},{"bufferView":4,"componentType":5126,"count":24,"max":[1,3,0.25],"min":[0.5,1.5,-0.25],"type":"VEC3"},{"bufferView":5,"componentType":5126,"count":24,"max":[1,1,1],"min":[-1,-1,-1],"type":"VEC3"},{"bufferView":6,"componentType":5126,"count":24,"max":[0.875,0.75],"min":[0.625,0.5],"type":"VEC2"},{"bufferView":7,"componentType":5123,"count":36,"max":[23],"min":[0],"type":"SCALAR"},{"bufferView":8,"componentType":5126,"count":24,"max":[-0.5,3,0.25],"min":[-1,1.5,-0.25],"type":"VEC3"},{"bufferView":9,"componentType":5126,"count":24,"max":[1,1,1],"min":[-1,-1,-1],"type":"VEC3"},{"bufferView":10,"componentType":5126,"count":24,"max":[0.75,0.25],"min":[0.5,0],"type":"VEC2"},{"bufferView":11,"componentType":5123,"count":36,"max":[23],"min":[0],"type":"SCALAR"},{"bufferView":12,"componentType":5126,"count":24,"max":[0.5,4,0.5],"min":[-0.5,3,-0.5],"type":"VEC3"},{"bufferView":13,"componentType":5126,"count":24,"max":[1,1,1],"min":[-1,-1,-1],"type":"VEC3"},{"bufferView":14,"componentType":5126,"count":24,"max":[0.5,1],"min":[0,0.75],"type":"VEC2"},{"bufferView":15,"componentType":5123,"count":36,"max":[23],"min":[0],"type":"SCALAR"},{"bufferView":16,"componentType":5126,"count":24,"max":[0,1.5,0.25],"min":[-0.5,0,-0.25],"type":"VEC3"},{"bufferView":17,"componentType":5126,"count":24,"max":[1,1,1],"min":[-1,-1,-1],"type":"VEC3"},{"bufferView":18,"componentType":5126,"count":24,"max":[0.5,0.25],"min":[0.25,0],"type":"VEC2"},{"bufferView":19,"componentType":5123,"count":36,"max":[23],"min":[0],"type":"SCALAR"},{"bufferView":20,"componentType":5126,"count":24,"max":[0.5,1.5,0.25],"min":[0,0,-0.25],"type":"VEC3"},{"bufferView":21,"componentType":5126,"count":24,"max":[1,1,1],"min":[-1,-1,-1],"type":"VEC3"},{"bufferView":22,"componentType":5126,"count":24,"max":[0.25,0.75],"min":[0,0.5],"type":"VEC2"},{"bufferView":23,"componentType":5123,"count":36,"max":[23],"min":[0],"type":"SCALAR"},{"bufferView":24,"componentType":5126,"count":21,"max":[1.1666666269302368],"min":[0],"type":"SCALAR"},{"bufferView":25,"componentType":5126,"count":21,"max":[5.336750109329808e-18,-0.9961947202682495,0.08715574443340302,6.123234262925839e-17],"min":[-3.880263411443508e-19,-1,-0.006336951162666082,6.099932915942466e-17],"type":"VEC4"},{"bufferView":26,"componentType":5126,"count":74,"max":[4.541666507720947],"min":[0],"type":"SCALAR"},{"bufferView":27,"componentType":5126,"count":74,"max":[0.1736481785774231,0,0,1],"min":[-0.7322263121604919,0,0,0.6810613870620728],"type":"VEC4"},{"bufferView":28,"componentType":5126,"count":1,"max":[0],"min":[0],"type":"SCALAR"},{"bufferView":29,"componentType":5126,"count":1,"max":[0,0,0,1],"min":[0,0,0,1],"type":"VEC4"},{"bufferView":30,"componentType":5126,"count":1,"max":[0],"min":[0],"type":"SCALAR"},{"bufferView":31,"componentType":5126,"count":1,"max":[0,1.25,0],"min":[0,1.25,0],"type":"VEC3"},{"bufferView":32,"componentType":5126,"count":50,"max":[3.0416667461395264],"min":[0],"type":"SCALAR"},{"bufferView":33,"componentType":5126,"count":50,"max":[0.787473201751709,0,0,1],"min":[-0.013438630849123001,0,0,0.616348922252655],"type":"VEC4"},{"bufferView":34,"componentType":5126,"count":50,"max":[3.0416667461395264],"min":[0],"type":"SCALAR"},{"bufferView":35,"componentType":5126,"count":50,"max":[0.9063078165054321,0,0,1],"min":[-0.5243253707885742,0,0,0.4226182699203491],"type":"VEC4"},{"bufferView":36,"componentType":5126,"count":62,"max":[3.7916667461395264],"min":[0],"type":"SCALAR"},{"bufferView":37,"componentType":5126,"count":62,"max":[0.1709509640932083,0.13052618503570557,0.0016384001355618238,1],"min":[-0.011292940005660057,-0.13052618503570557,-0.006234008353203535,0.9852445125579834],"type":"VEC4"},{"bufferView":38,"componentType":5126,"count":25,"max":[3.0833332538604736],"min":[0],"type":"SCALAR"},{"bufferView":39,"componentType":5126,"count":25,"max":[0.129409521818161,0.0009329937747679651,0,1],"min":[-0.009575633332133293,-0.017385052517056465,-0.14633290469646454,0.982597291469574],"type":"VEC4"},{"bufferView":40,"componentType":5126,"count":29,"max":[3.1666667461395264],"min":[0],"type":"SCALAR"},{"bufferView":41,"componentType":5126,"count":29,"max":[0.004767769947648048,0.00015775034262333065,0.049018118530511856,1],"min":[-0.06534087657928467,-0.0029121411498636007,0,0.9969092011451721],"type":"VEC4"}],"materials":[{"pbrMetallicRoughness":{"metallicFactor":0,"roughnessFactor":1,"baseColorTexture":{"index":0}},"alphaMode":"MASK","alphaCutoff":0.05,"doubleSided":true}],"textures":[{"sampler":0,"source":0,"name":"player.png"}],"samplers":[{"magFilter":9728,"minFilter":9728,"wrapS":33071,"wrapT":33071}],"images":[{"mimeType":"image/png","uri":"data:image/png;base64,"}],"meshes":[{"primitives":[{"mode":4,"attributes":{"POSITION":0,"NORMAL":1,"TEXCOORD_0":2},"indices":3,"material":0}]},{"primitives":[{"mode":4,"attributes":{"POSITION":4,"NORMAL":5,"TEXCOORD_0":6},"indices":7,"material":0}]},{"primitives":[{"mode":4,"attributes":{"POSITION":8,"NORMAL":9,"TEXCOORD_0":10},"indices":11,"material":0}]},{"primitives":[{"mode":4,"attributes":{"POSITION":12,"NORMAL":13,"TEXCOORD_0":14},"indices":15,"material":0}]},{"primitives":[{"mode":4,"attributes":{"POSITION":16,"NORMAL":17,"TEXCOORD_0":18},"indices":19,"material":0}]},{"primitives":[{"mode":4,"attributes":{"POSITION":20,"NORMAL":21,"TEXCOORD_0":22},"indices":23,"material":0}]}],"animations":[{"name":"animation.taunt.laugh","samplers":[{"input":24,"output":25,"interpolation":"LINEAR"},{"input":26,"output":27,"interpolation":"LINEAR"},{"input":28,"output":29,"interpolation":"LINEAR"},{"input":30,"output":31,"interpolation":"LINEAR"},{"input":32,"output":33,"interpolation":"LINEAR"},{"input":34,"output":35,"interpolation":"LINEAR"},{"input":36,"output":37,"interpolation":"LINEAR"},{"input":38,"output":39,"interpolation":"LINEAR"},{"input":40,"output":41,"interpolation":"LINEAR"}],"channels":[{"sampler":0,"target":{"node":15,"path":"rotation"}},{"sampler":1,"target":{"node":10,"path":"rotation"}},{"sampler":2,"target":{"node":6,"path":"rotation"}},{"sampler":3,"target":{"node":6,"path":"translation"}},{"sampler":4,"target":{"node":3,"path":"rotation"}},{"sampler":5,"target":{"node":5,"path":"rotation"}},{"sampler":6,"target":{"node":8,"path":"rotation"}},{"sampler":7,"target":{"node":12,"path":"rotation"}},{"sampler":8,"target":{"node":14,"path":"rotation"}}]}]}